<svg xmlns="http://www.w3.org/2000/svg" width="24" height="24" viewBox="0 0 24 24" fill="currentColor" stroke="none">
  <ellipse cx="7.5" cy="4.5" rx="2" ry="2.8"/>
  <ellipse cx="16.5" cy="4.5" rx="2" ry="2.8"/>
  <ellipse cx="3.5" cy="10.5" rx="2" ry="2.8" transform="rotate(-20 3.5 10.5)"/>
  <ellipse cx="20.5" cy="10.5" rx="2" ry="2.8" transform="rotate(20 20.5 10.5)"/>
  <path d="M12 22c-3.5 0-7-2.5-7-6.5 0-2 1.5-3.5 3.5-4.5 1.5-1 2.5-2.5 3.5-2.5s2 1.5 3.5 2.5c2 1 3.5 2.5 3.5 4.5 0 4-3.5 6.5-7 6.5z"/>
</svg>
