<svg xmlns="http://www.w3.org/2000/svg" width="24" height="24" viewBox="0 0 24 24" fill="none" stroke="currentColor" stroke-width="1.5" stroke-linecap="round" stroke-linejoin="round">
  <path d="M6 2h9a2 2 0 0 1 2 2v1H6V4a2 2 0 0 1 0-4z"/>
  <path d="M6 5h11v5a5 5 0 0 1-5 5H9a5 5 0 0 1-3-1"/>
  <path d="M6 5C4.3 5 3 6.8 3 9c0 2 1 3.5 2.5 4"/>
  <path d="M9 15v3"/>
  <path d="M12 15v3"/>
  <rect x="6" y="18" width="9" height="2" rx="1"/>
  <path d="M5 22h11"/>
  <path d="M6 20v2"/>
  <path d="M15 20v2"/>
</svg>
